<?xml version="1.0" encoding="UTF-8" standalone="no"?>
<!-- Uploaded to: SVG Repo, www.svgrepo.com, Generator: SVG Repo Mixer Tools -->

<svg
   fill="#000000"
   width="800px"
   height="800px"
   viewBox="0 0 24 24"
   version="1.1"
   id="svg1"
   sodipodi:docname="skull.svg"
   inkscape:version="1.4-beta2 (9aaf4f3498, 2024-07-30)"
   xmlns:inkscape="http://www.inkscape.org/namespaces/inkscape"
   xmlns:sodipodi="http://sodipodi.sourceforge.net/DTD/sodipodi-0.dtd"
   xmlns="http://www.w3.org/2000/svg"
   xmlns:svg="http://www.w3.org/2000/svg">
  <defs
     id="defs1" />
  <sodipodi:namedview
     id="namedview1"
     pagecolor="#ffffff"
     bordercolor="#999999"
     borderopacity="1"
     inkscape:showpageshadow="2"
     inkscape:pageopacity="0"
     inkscape:pagecheckerboard="0"
     inkscape:deskcolor="#d1d1d1"
     inkscape:zoom="0.71875"
     inkscape:cx="399.30435"
     inkscape:cy="400"
     inkscape:window-width="1366"
     inkscape:window-height="697"
     inkscape:window-x="-8"
     inkscape:window-y="-8"
     inkscape:window-maximized="1"
     inkscape:current-layer="svg1" />
  <path
     d="M 11.755653,0.26488229 A 10.808973,10.580392 0 0 0 0.90000098,10.773016 10.628769,10.403999 0 0 0 4.5637836,18.636319 v 1.580099 a 3.5172313,3.4428512 0 0 0 3.5280869,3.425849 h 7.3275655 a 3.5172313,3.4428512 0 0 0 3.528087,-3.424786 V 18.637382 A 10.628769,10.403999 0 0 0 22.611305,10.773016 10.808973,10.580392 0 0 0 11.755653,0.26488229 Z M 17.183479,17.305934 a 1.0855652,1.0626084 0 0 0 -0.411429,0.833085 v 2.078462 a 1.3450153,1.3165718 0 0 1 -1.352614,1.29957 h -0.407087 v -3.187826 a 1.0855655,1.0626087 0 0 0 -2.171131,0 v 3.187826 h -2.17113 v -3.187826 a 1.0855653,1.0626085 0 0 0 -2.1711306,0 v 3.187826 H 8.0918705 A 1.3450153,1.3165718 0 0 1 6.734914,20.217481 v -2.078462 a 1.0855652,1.0626084 0 0 0 -0.407087,-0.833085 8.481521,8.3021593 0 0 1 -3.2566956,-6.532918 8.6845218,8.5008672 0 0 1 17.3690436,0 8.481521,8.3021593 0 0 1 -3.256696,6.532918 z m -6.513391,-4.289752 a 2.1711304,2.1252168 0 1 1 -2.1711306,-2.125216 2.1711304,2.1252168 0 0 1 2.1711306,2.125216 z m 6.513391,0 a 2.1711304,2.1252168 0 1 1 -2.17113,-2.125216 2.1711304,2.1252168 0 0 1 2.17113,2.125216 z"
     id="path1-9"
     style="stroke-width:1.07403;fill:#ffffff" />
  <path
     style="fill:#ffffff;stroke:#000000;stroke-width:0.13913;stroke-linecap:round;stroke-miterlimit:4.2;stroke-opacity:0"
     d="m 273.14675,696.85212 c -7.94464,-2.8151 -17.90396,-11.92365 -22.42199,-20.50659 l -3.75224,-7.12814 -0.70892,-42.43478 c -0.58878,-35.2434 -1.09475,-43.28579 -2.98563,-47.45638 -1.35155,-2.98103 -7.85114,-9.91688 -15.99474,-17.06832 -74.64175,-65.548 -106.75618,-157.41805 -88.01529,-251.78619 18.20118,-91.6505 86.50298,-169.24557 175.16684,-199.00039 80.31757,-26.953867 164.38596,-15.721663 234.43479,31.32235 77.93971,52.34344 123.91828,146.6416 116.27117,238.46235 -5.92777,71.17614 -35.62536,130.32718 -89.47094,178.20633 -8.98162,7.98639 -17.43379,16.53973 -18.78261,19.00743 -2.14162,3.91815 -2.54056,9.86437 -3.14806,46.92151 -0.67183,40.98189 -0.80931,42.68628 -4.01503,49.78008 -4.08282,9.03467 -14.49111,18.71828 -23.37132,21.74406 -3.57535,1.21825 -10.74417,2.21499 -15.93069,2.21499 h -9.43005 l -0.40906,-53.91304 c -0.40532,-53.41921 -0.43909,-53.97402 -3.68745,-60.57098 -11.70473,-23.77064 -45.96256,-24.57597 -59.58512,-1.40072 l -3.91911,6.66735 -0.4084,54.6087 -0.4084,54.60869 H 400 367.4255 l -0.4084,-54.60869 -0.4084,-54.6087 -3.91911,-6.66735 c -13.61802,-23.16753 -47.8843,-22.36199 -59.58512,1.40072 -3.24836,6.59696 -3.28213,7.15177 -3.68745,60.57098 l -0.40906,53.91304 -10.02573,-0.10984 c -5.51414,-0.0604 -12.64011,-1.03621 -15.83548,-2.16847 z m 44.74487,-198.81803 c 30.01481,-7.81788 51.4123,-38.16494 49.01262,-69.51235 -1.94768,-25.44264 -19.06207,-48.8048 -42.39221,-57.86784 -12.12077,-4.70855 -32.87871,-5.30692 -44.85986,-1.29315 -24.65396,8.25927 -41.83914,28.46823 -46.08827,54.19765 -4.46009,27.00686 10.09984,55.80435 34.76861,68.76743 5.27321,2.77099 12.01214,5.60751 14.9754,6.30337 8.60378,2.02041 25.66945,1.72675 34.58371,-0.59511 z m 199.16105,0.20573 c 25.3836,-6.75886 45.01667,-28.57389 49.35433,-54.83944 5.23889,-31.72265 -15.17885,-64.50535 -46.18573,-74.15577 -11.42308,-3.55527 -28.73974,-3.5138 -40.42254,0.0968 -33.54695,10.36772 -53.74846,46.29977 -44.97273,79.9921 6.09684,23.4073 24.61381,42.69797 46.68041,48.63085 9.62881,2.58883 26.37095,2.71857 35.54626,0.27547 z"
     id="path2"
     transform="scale(0.03)" />
  <g
     id="g2">
    <path
       d="m 11.77261,1.0748765 a 9.957,9.957 0 0 0 -10.0000005,9.8890005 9.791,9.791 0 0 0 3.375,7.4 v 1.487 a 3.24,3.24 0 0 0 3.25,3.224 H 15.14761 a 3.24,3.24 0 0 0 3.25,-3.223 v -1.487 a 9.791,9.791 0 0 0 3.375,-7.401 9.957,9.957 0 0 0 -10,-9.8890005 z m 5,16.0370005 a 1,1 0 0 0 -0.379,0.784 v 1.956 a 1.239,1.239 0 0 1 -1.246,1.223 h -0.375 v -3 a 1,1 0 0 0 -2,0 v 3 h -2 v -3 a 1.0000001,1.0000001 0 0 0 -2.0000005,0 v 3 h -0.375 a 1.239,1.239 0 0 1 -1.25,-1.223 v -1.956 a 1,1 0 0 0 -0.375,-0.784 7.813,7.813 0 0 1 -3,-6.148 8.0000001,8.0000001 0 0 1 16.0000005,0 7.813,7.813 0 0 1 -3,6.148 z m -6,-4.037 a 2,2 0 1 1 -2.0000005,-2 2,2 0 0 1 2.0000005,2 z m 6,0 a 2,2 0 1 1 -2,-2 2,2 0 0 1 2,2 z"
       id="path1" />
  </g>
</svg>
